<svg xmlns="http://www.w3.org/2000/svg" width="384pt" height="384pt" viewBox="0 0 384 384" version="1.1" class="iconadda">
<g>
<g id="Graph_free_icon_0fjj4Va-0"><path style=" stroke:none;fill-rule:nonzero;fill:#96de3e;fill-opacity:1;" d="M 67.765625 119.253906 L 67.765625 356.429688 L 98.824219 363.960938 L 112.941406 235.710938 L 98.824219 119.253906 Z M 67.765625 119.253906 " />
</g><g id="Graph_free_icon_0fjj4Va-1"><path style=" stroke:none;fill-rule:nonzero;fill:#59c26a;fill-opacity:1;" d="M 98.824219 119.253906 L 98.824219 363.960938 L 129.882812 363.960938 L 129.882812 119.253906 Z M 98.824219 119.253906 " />
</g><g id="Graph_free_icon_0fjj4Va-2"><path style=" stroke:none;fill-rule:nonzero;fill:#fe8f01;fill-opacity:1;" d="M 129.882812 153.136719 L 129.882812 363.960938 L 160.941406 363.960938 L 175.058594 235.710938 L 160.941406 153.136719 Z M 129.882812 153.136719 " />
</g><g id="Graph_free_icon_0fjj4Va-3"><path style=" stroke:none;fill-rule:nonzero;fill:#fe4a4b;fill-opacity:1;" d="M 160.941406 153.136719 L 160.941406 363.960938 L 192 363.960938 L 192 153.136719 Z M 160.941406 153.136719 " />
</g><g id="Graph_free_icon_0fjj4Va-4"><path style=" stroke:none;fill-rule:nonzero;fill:#fed401;fill-opacity:1;" d="M 192 209.609375 L 192 363.960938 L 223.058594 363.960938 L 237.175781 235.710938 L 223.058594 209.609375 Z M 192 209.609375 " />
</g><g id="Graph_free_icon_0fjj4Va-5"><path style=" stroke:none;fill-rule:nonzero;fill:#feba01;fill-opacity:1;" d="M 223.058594 209.609375 L 223.058594 363.960938 L 254.117188 363.960938 L 254.117188 209.609375 Z M 223.058594 209.609375 " />
</g><g id="Graph_free_icon_0fjj4Va-6"><path style=" stroke:none;fill-rule:nonzero;fill:#66ccff;fill-opacity:1;" d="M 254.117188 277.371094 L 254.117188 363.960938 L 285.175781 363.960938 L 299.292969 311.253906 L 285.175781 277.371094 Z M 254.117188 277.371094 " />
</g><g id="Graph_free_icon_0fjj4Va-7"><path style=" stroke:none;fill-rule:nonzero;fill:#59abff;fill-opacity:1;" d="M 285.175781 277.371094 L 285.175781 363.960938 L 316.234375 356.429688 L 316.234375 277.371094 Z M 285.175781 277.371094 " />
</g><g id="Graph_free_icon_0fjj4Va-8"><path style=" stroke:none;fill-rule:nonzero;fill:#a3dbff;fill-opacity:1;" d="M 45.175781 333.84375 L 22.589844 333.84375 L 11.296875 322.550781 L 22.589844 311.257812 L 45.179688 311.257812 Z M 45.175781 288.667969 L 22.589844 288.667969 L 11.296875 277.375 L 22.589844 266.082031 L 45.179688 266.082031 Z M 45.175781 243.488281 L 22.589844 243.488281 L 11.296875 232.195312 L 22.589844 220.902344 L 45.179688 220.902344 Z M 45.175781 198.3125 L 22.589844 198.3125 L 11.296875 187.019531 L 22.589844 175.726562 L 45.179688 175.726562 Z M 45.175781 153.136719 L 22.589844 153.136719 L 11.296875 141.84375 L 22.589844 130.550781 L 45.179688 130.550781 Z M 45.175781 107.960938 L 22.589844 107.960938 L 11.296875 96.667969 L 22.589844 85.375 L 45.179688 85.375 L 45.179688 96.667969 Z M 45.175781 107.960938 " />
</g><g id="Graph_free_icon_0fjj4Va-9"><path style=" stroke:none;fill-rule:nonzero;fill:#cde7ff;fill-opacity:1;" d="M 22.589844 356.429688 L 22.589844 51.488281 L 0 51.488281 L 0 379.019531 L 192 379.019531 L 204.484375 367.726562 L 192 356.433594 Z M 22.589844 356.429688 " />
</g><g id="Graph_free_icon_0fjj4Va-10"><path style=" stroke:none;fill-rule:nonzero;fill:#a3dbff;fill-opacity:1;" d="M 192 356.429688 L 338.824219 356.429688 L 338.824219 379.019531 L 192 379.019531 Z M 192 356.429688 " />
</g><g id="Graph_free_icon_0fjj4Va-11"><path style=" stroke:none;fill-rule:nonzero;fill:#fe4a4b;fill-opacity:1;" d="M 304.941406 77.84375 L 266.542969 49.984375 L 225.882812 44.511719 L 225.882812 137.53125 L 304.941406 177.0625 L 317.742188 131.21875 Z M 304.941406 77.84375 " />
</g><g id="Graph_free_icon_0fjj4Va-12"><path style=" stroke:none;fill-rule:nonzero;fill:#d00663;fill-opacity:1;" d="M 384 44.511719 L 341.082031 51.113281 L 304.941406 77.84375 L 304.941406 177.058594 L 384 137.527344 Z M 384 44.511719 " />
</g><g id="Graph_free_icon_0fjj4Va-13"><path style=" stroke:none;fill-rule:nonzero;fill:#fe8f01;fill-opacity:1;" d="M 225.882812 44.511719 L 304.941406 85.375 L 317.742188 45.175781 L 304.941406 4.980469 Z M 225.882812 44.511719 " />
</g><g id="Graph_free_icon_0fjj4Va-14"><path style=" stroke:none;fill-rule:nonzero;fill:#fe4a4b;fill-opacity:1;" d="M 304.941406 4.980469 L 304.941406 85.371094 L 384 44.507812 L 304.941406 4.976562 Z M 304.941406 4.980469 " />
</g></g>
</svg>