<svg xmlns="http://www.w3.org/2000/svg" width="384pt" height="384pt" viewBox="0 0 384 384" version="1.1" class="iconadda">
<g>
<g id="Document_free_icon_1_tFVj8I1-0"><path style=" stroke:none;fill-rule:nonzero;fill:#547883;fill-opacity:1;" d="M 378.628906 373.378906 L 370.289062 381.71875 C 367.246094 384.761719 362.3125 384.761719 359.269531 381.71875 L 302.464844 324.914062 L 321.824219 305.5625 L 378.625 362.355469 C 381.667969 365.398438 381.667969 370.332031 378.625 373.375 Z M 378.628906 373.378906 " />
</g><g id="Document_free_icon_1_tFVj8I1-1"><path style=" stroke:none;fill-rule:nonzero;fill:#3e595a;fill-opacity:1;" d="M 341.378906 363.898438 L 360.734375 344.542969 L 378.558594 362.367188 L 359.203125 381.722656 Z M 337.496094 321.234375 C 335.511719 325.457031 332.808594 329.304688 329.507812 332.597656 C 326.148438 335.945312 322.324219 338.636719 318.160156 340.605469 L 302.46875 324.914062 L 321.820312 305.5625 Z M 337.496094 321.234375 " />
</g><g id="Document_free_icon_1_tFVj8I1-2"><path style=" stroke:none;fill-rule:nonzero;fill:#fbb34d;fill-opacity:1;" d="M 371.285156 348.484375 L 344.789062 374.980469 C 341.941406 377.828125 337.328125 377.828125 334.480469 374.980469 L 324.867188 365.367188 C 322.019531 362.519531 322.019531 357.90625 324.867188 355.058594 L 351.363281 328.5625 C 354.210938 325.714844 358.828125 325.714844 361.671875 328.5625 L 371.285156 338.175781 C 374.132812 341.023438 374.132812 345.636719 371.285156 348.484375 Z M 371.285156 348.484375 " />
</g><g id="Document_free_icon_1_tFVj8I1-3"><path style=" stroke:none;fill-rule:nonzero;fill:#fb9928;fill-opacity:1;" d="M 361.675781 328.5625 L 371.289062 338.175781 C 374.132812 341.019531 374.132812 345.640625 371.289062 348.484375 L 357.269531 362.503906 C 360.113281 359.660156 360.113281 355.039062 357.269531 352.195312 L 347.65625 342.582031 L 347.652344 342.582031 C 346.285156 341.214844 344.433594 340.445312 342.5 340.445312 C 340.566406 340.445312 338.710938 341.214844 337.34375 342.582031 L 351.363281 328.5625 L 351.367188 328.5625 C 352.730469 327.195312 354.585938 326.425781 356.519531 326.425781 C 358.453125 326.425781 360.308594 327.195312 361.675781 328.5625 Z M 361.675781 328.5625 " />
</g><g id="Document_free_icon_1_tFVj8I1-4"><path style=" stroke:none;fill-rule:nonzero;fill:#edf4f5;fill-opacity:1;" d="M 272.371094 69.910156 L 272.371094 365.824219 C 272.371094 368.023438 271.496094 370.132812 269.941406 371.6875 C 268.386719 373.242188 266.277344 374.117188 264.082031 374.113281 L 11.386719 374.113281 C 6.804688 374.113281 3.089844 370.40625 3.089844 365.824219 L 3.085938 8.289062 C 3.085938 3.714844 6.804688 0 11.386719 0 L 202.476562 0 L 210.265625 7.789062 L 210.265625 53.820312 C 210.265625 58.402344 213.972656 62.117188 218.554688 62.117188 L 264.578125 62.117188 Z M 272.371094 69.910156 " />
</g><g id="Document_free_icon_1_tFVj8I1-5"><path style=" stroke:none;fill-rule:nonzero;fill:#cae5e7;fill-opacity:1;" d="M 202.472656 0 L 210.261719 7.789062 L 210.261719 40.253906 L 170.015625 0 Z M 272.371094 69.910156 L 272.371094 365.824219 C 272.371094 370.398438 268.65625 374.113281 264.082031 374.113281 L 231.625 374.113281 C 236.199219 374.113281 239.914062 370.398438 239.914062 365.824219 L 239.910156 69.910156 L 232.121094 62.121094 L 264.578125 62.121094 Z M 272.371094 69.910156 " />
</g><g id="Document_free_icon_1_tFVj8I1-6"><path style=" stroke:none;fill-rule:nonzero;fill:#cae5e7;fill-opacity:1;" d="M 272.371094 69.910156 L 272.371094 95.285156 L 210.765625 95.285156 C 206.183594 95.285156 202.476562 91.570312 202.476562 86.996094 L 202.472656 0 L 210.261719 7.789062 L 210.261719 53.820312 C 210.261719 58.402344 213.96875 62.117188 218.550781 62.117188 L 264.574219 62.117188 Z M 272.371094 69.910156 " />
</g><g id="Document_free_icon_1_tFVj8I1-7"><path style=" stroke:none;fill-rule:nonzero;fill:#30a6fc;fill-opacity:1;" d="M 202.472656 61.613281 L 202.472656 0 L 272.371094 69.90625 L 210.765625 69.90625 C 206.183594 69.90625 202.472656 66.191406 202.472656 61.613281 Z M 202.472656 61.613281 " />
</g><g id="Document_free_icon_1_tFVj8I1-8"><path style=" stroke:none;fill-rule:nonzero;fill:#e4eaeb;fill-opacity:1;" d="M 147.382812 88.199219 C 147.382812 107.855469 137.003906 125.089844 121.429688 134.726562 L 121.429688 118.738281 C 121.429688 106.4375 111.417969 96.433594 99.125 96.433594 L 86.503906 96.433594 C 74.203125 96.433594 64.199219 106.4375 64.199219 118.738281 L 64.199219 134.851562 C 48.507812 125.246094 38.042969 107.941406 38.042969 88.195312 C 38.042969 57.996094 62.515625 33.515625 92.714844 33.515625 C 122.90625 33.515625 147.386719 57.996094 147.386719 88.195312 Z M 147.382812 88.199219 " />
</g><g id="Document_free_icon_1_tFVj8I1-9"><path style=" stroke:none;fill-rule:nonzero;fill:#cae5e7;fill-opacity:1;" d="M 147.382812 88.199219 C 147.382812 107.855469 137.003906 125.089844 121.429688 134.726562 L 121.429688 118.738281 C 121.429688 115.550781 120.761719 112.527344 119.550781 109.785156 C 122.402344 103.164062 123.984375 95.863281 123.984375 88.195312 C 123.984375 62.007812 105.582031 40.128906 81.015625 34.777344 L 81.015625 34.78125 C 84.855469 33.941406 88.777344 33.515625 92.710938 33.519531 C 122.902344 33.519531 147.382812 58 147.382812 88.199219 Z M 147.382812 88.199219 " />
</g><g id="Document_free_icon_1_tFVj8I1-10"><path style=" stroke:none;fill-rule:nonzero;fill:#fb693c;fill-opacity:1;" d="M 133.113281 118.738281 L 133.113281 125.019531 C 123.121094 135.988281 108.71875 142.867188 92.710938 142.867188 C 76.808594 142.867188 62.492188 136.082031 52.503906 125.238281 L 52.503906 118.738281 C 52.503906 99.964844 67.726562 84.742188 86.5 84.742188 L 99.117188 84.742188 C 117.890625 84.742188 133.113281 99.964844 133.113281 118.738281 Z M 133.113281 118.738281 " />
</g><g id="Document_free_icon_1_tFVj8I1-11"><path style=" stroke:none;fill-rule:nonzero;fill:#fb5432;fill-opacity:1;" d="M 133.113281 118.738281 L 133.113281 125.019531 C 127.132812 131.589844 119.640625 136.601562 111.289062 139.625 L 111.289062 118.738281 C 111.289062 101.53125 98.496094 87.296875 81.898438 85.058594 C 83.421875 84.847656 84.960938 84.742188 86.5 84.746094 L 99.117188 84.746094 C 117.890625 84.746094 133.113281 99.96875 133.113281 118.738281 Z M 133.113281 118.738281 " />
</g><g id="Document_free_icon_1_tFVj8I1-12"><path style=" stroke:none;fill-rule:nonzero;fill:#fedbcf;fill-opacity:1;" d="M 92.808594 91.214844 C 81.917969 91.214844 73.085938 82.386719 73.085938 71.492188 L 73.089844 56.476562 C 73.089844 45.585938 81.917969 36.753906 92.8125 36.753906 C 103.703125 36.753906 112.535156 45.582031 112.535156 56.476562 L 112.535156 71.492188 C 112.535156 82.382812 103.707031 91.214844 92.8125 91.214844 Z M 92.808594 91.214844 " />
</g><g id="Document_free_icon_1_tFVj8I1-13"><path style=" stroke:none;fill-rule:nonzero;fill:#a34e41;fill-opacity:1;" d="M 104.6875 56.757812 L 73.089844 56.757812 L 73.089844 45.597656 C 73.089844 37.796875 79.414062 31.472656 87.214844 31.472656 L 115.328125 31.472656 L 115.324219 31.472656 C 116.25 31.472656 117.136719 31.839844 117.789062 32.496094 C 118.445312 33.148438 118.8125 34.035156 118.8125 34.960938 L 118.8125 42.632812 C 118.8125 50.433594 112.488281 56.757812 104.6875 56.757812 Z M 104.6875 56.757812 " />
</g><g id="Document_free_icon_1_tFVj8I1-14"><path style=" stroke:none;fill-rule:nonzero;fill:#863e20;fill-opacity:1;" d="M 118.816406 34.964844 L 118.816406 42.636719 C 118.816406 50.433594 112.488281 56.753906 104.691406 56.753906 L 88.785156 56.757812 C 96.582031 56.757812 102.902344 50.4375 102.902344 42.640625 L 102.902344 34.964844 C 102.90625 34.039062 102.539062 33.152344 101.882812 32.5 C 101.230469 31.84375 100.339844 31.476562 99.417969 31.476562 L 115.324219 31.476562 L 115.320312 31.476562 C 116.246094 31.476562 117.136719 31.839844 117.792969 32.496094 C 118.449219 33.148438 118.816406 34.039062 118.816406 34.964844 Z M 118.816406 34.964844 " />
</g><g id="Document_free_icon_1_tFVj8I1-15"><path style=" stroke:none;fill-rule:nonzero;fill:#30a6fc;fill-opacity:1;" d="M 200.84375 207.714844 L 48.816406 207.714844 C 44.234375 207.714844 40.523438 204.003906 40.523438 199.421875 L 40.523438 183.121094 C 40.523438 178.539062 44.234375 174.828125 48.816406 174.828125 L 200.847656 174.828125 C 205.429688 174.828125 209.140625 178.539062 209.140625 183.121094 L 209.140625 199.421875 C 209.140625 204.003906 205.425781 207.714844 200.847656 207.714844 Z M 200.84375 207.714844 " />
</g><g id="Document_free_icon_1_tFVj8I1-16"><path style=" stroke:none;fill-rule:nonzero;fill:#1b95fa;fill-opacity:1;" d="M 209.140625 183.121094 L 209.140625 199.425781 C 209.140625 204.003906 205.425781 207.71875 200.847656 207.71875 L 171.9375 207.71875 C 176.515625 207.71875 180.230469 204.003906 180.230469 199.425781 L 180.230469 183.121094 C 180.230469 178.542969 176.515625 174.828125 171.9375 174.828125 L 200.84375 174.828125 C 205.421875 174.828125 209.136719 178.542969 209.136719 183.121094 Z M 209.140625 183.121094 " />
</g><g id="Document_free_icon_1_tFVj8I1-17"><path style=" stroke:none;fill-rule:nonzero;fill:#cae5e7;fill-opacity:1;" d="M 98.4375 249.09375 L 40.523438 249.09375 C 37.296875 249.09375 34.679688 246.476562 34.679688 243.25 C 34.679688 240.023438 37.296875 237.40625 40.523438 237.40625 L 98.4375 237.40625 C 101.664062 237.40625 104.28125 240.023438 104.28125 243.25 C 104.28125 246.476562 101.664062 249.09375 98.4375 249.09375 Z M 173.070312 271.933594 L 40.523438 271.933594 C 37.296875 271.933594 34.679688 269.316406 34.679688 266.089844 C 34.679688 262.863281 37.296875 260.246094 40.523438 260.246094 L 173.070312 260.246094 C 174.621094 260.246094 176.109375 260.863281 177.203125 261.957031 C 178.300781 263.054688 178.914062 264.542969 178.914062 266.089844 C 178.914062 267.640625 178.300781 269.128906 177.203125 270.222656 C 176.109375 271.320312 174.621094 271.933594 173.070312 271.933594 Z M 173.070312 294.773438 L 40.523438 294.773438 C 37.296875 294.773438 34.679688 292.160156 34.679688 288.929688 C 34.679688 285.703125 37.296875 283.089844 40.523438 283.089844 L 173.070312 283.089844 C 176.296875 283.089844 178.914062 285.703125 178.914062 288.929688 C 178.914062 292.160156 176.296875 294.773438 173.070312 294.773438 Z M 173.070312 294.773438 " />
</g><g id="Document_free_icon_1_tFVj8I1-18"><path style=" stroke:none;fill-rule:nonzero;fill:#fb9928;fill-opacity:1;" d="M 184.53125 133.484375 L 175.375 124.328125 C 171.664062 120.617188 171.664062 114.601562 175.375 110.890625 L 184.53125 101.734375 C 188.242188 98.023438 194.257812 98.023438 197.96875 101.734375 L 207.125 110.890625 C 210.835938 114.601562 210.835938 120.617188 207.125 124.328125 L 197.96875 133.484375 C 194.257812 137.195312 188.242188 137.195312 184.53125 133.484375 Z M 184.53125 133.484375 " />
</g><g id="Document_free_icon_1_tFVj8I1-19"><path style=" stroke:none;fill-rule:nonzero;fill:#fb7d4c;fill-opacity:1;" d="M 207.128906 124.324219 L 197.972656 133.488281 C 194.257812 137.195312 188.246094 137.195312 184.53125 133.488281 L 180.675781 129.632812 L 191.332031 118.976562 C 191.691406 118.613281 191.898438 118.125 191.898438 117.613281 C 191.898438 117.101562 191.691406 116.609375 191.332031 116.246094 L 180.675781 105.589844 L 184.53125 101.734375 C 188.246094 98.019531 194.257812 98.019531 197.972656 101.734375 L 207.128906 110.890625 C 210.835938 114.605469 210.835938 120.617188 207.128906 124.324219 Z M 207.128906 124.324219 " />
</g><g id="Document_free_icon_1_tFVj8I1-20"><path style=" stroke:none;fill-rule:nonzero;fill:#a9d2d8;fill-opacity:1;" d="M 346.183594 252.789062 C 346.183594 308.210938 301.257812 353.136719 245.835938 353.136719 C 190.414062 353.136719 145.488281 308.210938 145.488281 252.789062 C 145.488281 197.371094 190.414062 152.441406 245.835938 152.441406 C 301.257812 152.441406 346.183594 197.371094 346.183594 252.789062 " />
</g><g id="Document_free_icon_1_tFVj8I1-21"><path style=" stroke:none;fill-rule:nonzero;fill:#8fb9c4;fill-opacity:1;" d="M 346.183594 252.792969 C 346.183594 308.210938 301.257812 353.136719 245.839844 353.136719 C 240.234375 353.136719 234.730469 352.671875 229.378906 351.792969 C 276.964844 343.933594 313.261719 302.605469 313.261719 252.792969 C 313.261719 202.96875 276.96875 161.644531 229.378906 153.785156 C 234.820312 152.890625 240.324219 152.441406 245.839844 152.441406 C 301.257812 152.441406 346.183594 197.367188 346.183594 252.792969 Z M 346.183594 252.792969 " />
</g><g id="Document_free_icon_1_tFVj8I1-22"><path style=" stroke:none;fill-rule:nonzero;fill:#d8ecfd;fill-opacity:1;" d="M 316.015625 252.789062 C 316.015625 291.878906 284.328125 323.574219 245.238281 323.574219 C 206.140625 323.574219 174.453125 291.878906 174.453125 252.789062 C 174.453125 242.019531 176.851562 231.824219 181.160156 222.691406 L 221.503906 222.691406 C 230.144531 222.691406 237.15625 215.679688 237.15625 207.039062 L 237.15625 182.472656 L 237.160156 182.472656 C 239.84375 182.164062 242.539062 182.011719 245.242188 182.011719 C 284.332031 182.011719 316.019531 213.699219 316.019531 252.789062 Z M 316.015625 252.789062 " />
</g><g id="Document_free_icon_1_tFVj8I1-23"><path style=" stroke:none;fill-rule:nonzero;fill:#b4dbfd;fill-opacity:1;" d="M 316.011719 252.792969 C 316.011719 291.878906 284.324219 323.566406 245.238281 323.566406 C 240.148438 323.566406 235.070312 323.023438 230.09375 321.941406 C 261.902344 315.007812 285.722656 286.683594 285.722656 252.796875 C 285.722656 218.902344 261.902344 190.574219 230.09375 183.640625 C 235.070312 182.554688 240.148438 182.011719 245.238281 182.011719 C 284.324219 182.011719 316.011719 213.699219 316.011719 252.792969 Z M 316.011719 252.792969 " />
</g><g id="Document_free_icon_1_tFVj8I1-24"><path style=" stroke:none;fill-rule:nonzero;fill:#30a6fc;fill-opacity:1;" d="M 244.949219 182.019531 C 213.78125 182.144531 187.367188 202.410156 178.050781 230.484375 L 229.296875 230.484375 C 237.941406 230.484375 244.949219 223.476562 244.949219 214.832031 Z M 244.949219 182.019531 " />
</g><g id="Document_free_icon_1_tFVj8I1-25"><path style=" stroke:none;fill-rule:nonzero;fill:#1b95fa;fill-opacity:1;" d="M 244.949219 182.019531 L 244.949219 214.832031 C 244.949219 223.472656 237.945312 230.484375 229.296875 230.484375 L 205.523438 230.484375 C 214.164062 230.484375 221.175781 223.472656 221.175781 214.832031 L 221.175781 186.210938 L 221.171875 186.214844 C 228.800781 183.460938 236.839844 182.042969 244.949219 182.019531 Z M 244.949219 182.019531 " />
</g><g id="Document_free_icon_1_tFVj8I1-26"><path style=" stroke:none;fill-rule:nonzero;fill:#b4dbfd;fill-opacity:1;" d="M 224.671875 271.058594 C 224.671875 274.285156 222.054688 276.902344 218.828125 276.902344 L 178.671875 276.902344 C 177.292969 273.105469 176.246094 269.195312 175.546875 265.214844 L 218.828125 265.214844 C 220.378906 265.214844 221.863281 265.828125 222.960938 266.925781 C 224.054688 268.023438 224.671875 269.507812 224.671875 271.058594 Z M 227.945312 294.277344 C 227.945312 295.828125 227.328125 297.3125 226.234375 298.410156 C 225.136719 299.503906 223.652344 300.121094 222.101562 300.121094 L 192.617188 300.121094 C 189.378906 296.527344 186.515625 292.609375 184.078125 288.433594 L 222.101562 288.433594 C 223.648438 288.433594 225.136719 289.046875 226.234375 290.144531 C 227.328125 291.238281 227.945312 292.726562 227.945312 294.277344 Z M 227.945312 294.277344 " />
</g></g>
</svg>