<svg xmlns="http://www.w3.org/2000/svg" width="384pt" height="384pt" viewBox="0 0 384 384" version="1.1" class="iconadda">
<g>
<g id="Time_Management_free_icon_1_gP7tO0b-0"><path style=" stroke:none;fill-rule:nonzero;fill:#f1f4f6;fill-opacity:1;" d="M 384 192 C 384 298.039062 298.039062 384 192 384 C 85.960938 384 0 298.039062 0 192 C 0 85.960938 85.960938 0 192 0 C 298.039062 0 384 85.960938 384 192 " />
</g><g id="Time_Management_free_icon_1_gP7tO0b-1"><path style=" stroke:none;fill-rule:nonzero;fill:#79cfdf;fill-opacity:1;" d="M 181.332031 151.984375 L 21.332031 192 C 21.332031 286.257812 97.742188 362.667969 192 362.667969 L 232.015625 202.667969 C 219.042969 202.667969 181.332031 164.957031 181.332031 151.984375 Z M 181.332031 151.984375 " />
</g><g id="Time_Management_free_icon_1_gP7tO0b-2"><path style=" stroke:none;fill-rule:nonzero;fill:#f5e267;fill-opacity:1;" d="M 312.679688 71.320312 L 176.914062 147.109375 C 182.378906 152.574219 191.789062 202.152344 191.996094 202.355469 C 191.996094 202.355469 271.589844 263.257812 267.425781 267.425781 L 312.679688 312.679688 C 343.5625 281.796875 362.667969 239.128906 362.667969 192 C 362.667969 144.871094 343.566406 102.203125 312.679688 71.320312 Z M 312.679688 71.320312 " />
</g><g id="Time_Management_free_icon_1_gP7tO0b-3"><path style=" stroke:none;fill-rule:nonzero;fill:#f1d234;fill-opacity:1;" d="M 312.679688 71.320312 L 303.09375 71.320312 L 302.71875 81.28125 C 321.054688 108.488281 331.761719 141.269531 331.761719 176.546875 C 331.761719 219.742188 315.714844 259.191406 289.253906 289.253906 L 282.535156 312.679688 L 312.679688 312.679688 C 343.5625 281.796875 362.667969 239.128906 362.667969 192 C 362.667969 144.871094 343.5625 102.203125 312.679688 71.320312 Z M 312.679688 71.320312 " />
</g><g id="Time_Management_free_icon_1_gP7tO0b-4"><path style=" stroke:none;fill-rule:nonzero;fill:#70c6da;fill-opacity:1;" d="M 161.09375 347.214844 C 139.832031 347.214844 119.480469 343.328125 100.707031 336.222656 C 127.109375 352.96875 158.421875 362.667969 192 362.667969 L 197.792969 354.53125 L 192 344.421875 C 181.804688 346.285156 171.457031 347.21875 161.09375 347.214844 Z M 161.09375 347.214844 " />
</g><g id="Time_Management_free_icon_1_gP7tO0b-5"><path style=" stroke:none;fill-rule:nonzero;fill:#aad770;fill-opacity:1;" d="M 177.910156 175.980469 C 185.976562 168.855469 198.363281 168.953125 206.328125 176.191406 C 206.589844 176.425781 206.839844 176.667969 207.085938 176.914062 L 312.679688 71.320312 C 281.796875 40.4375 239.128906 21.332031 192 21.332031 C 97.742188 21.332031 21.332031 97.742188 21.332031 192 L 170.667969 192 C 170.660156 185.867188 173.300781 180.027344 177.910156 175.980469 Z M 177.910156 175.980469 " />
</g><g id="Time_Management_free_icon_1_gP7tO0b-6"><path style=" stroke:none;fill-rule:nonzero;fill:#46595a;fill-opacity:1;" d="M 202.667969 181.027344 L 202.667969 66.902344 C 202.667969 61.011719 197.890625 56.234375 192 56.234375 C 186.109375 56.234375 181.332031 61.007812 181.332031 66.902344 L 181.332031 181.023438 C 187.894531 177.253906 196.113281 177.265625 202.664062 181.027344 Z M 202.667969 181.027344 " />
</g><g id="Time_Management_free_icon_1_gP7tO0b-7"><path style=" stroke:none;fill-rule:nonzero;fill:#dd626f;fill-opacity:1;" d="M 267.425781 267.425781 C 263.261719 271.589844 256.507812 271.589844 252.339844 267.425781 L 197.855469 212.941406 C 197.648438 212.734375 197.351562 212.652344 197.070312 212.726562 C 195.40625 213.132812 193.703125 213.335938 192 213.335938 L 192 362.671875 C 239.128906 362.671875 281.796875 343.570312 312.679688 312.683594 Z M 267.425781 267.425781 " />
</g><g id="Time_Management_free_icon_1_gP7tO0b-8"><path style=" stroke:none;fill-rule:nonzero;fill:#9bcf6a;fill-opacity:1;" d="M 302.71875 81.28125 L 312.679688 71.320312 C 295.726562 54.367188 275.226562 40.96875 252.386719 32.324219 C 272.359375 45 289.496094 61.667969 302.71875 81.28125 Z M 302.71875 81.28125 " />
</g><g id="Time_Management_free_icon_1_gP7tO0b-9"><path style=" stroke:none;fill-rule:nonzero;fill:#d94a54;fill-opacity:1;" d="M 192 344.421875 L 192 362.667969 C 239.128906 362.667969 281.796875 343.566406 312.679688 312.679688 L 289.253906 289.253906 C 264.441406 317.445312 230.472656 337.382812 192 344.421875 Z M 192 344.421875 " />
</g><g id="Time_Management_free_icon_1_gP7tO0b-10"><path style=" stroke:none;fill-rule:nonzero;fill:#f1f4f6;fill-opacity:1;" d="M 96.003906 293.621094 C 94.511719 293.625 93.082031 293.03125 92.027344 291.972656 C 89.832031 289.777344 89.832031 286.214844 92.027344 284.019531 L 186.21875 189.828125 C 188.414062 187.628906 191.976562 187.628906 194.171875 189.828125 C 196.371094 192.023438 196.371094 195.585938 194.171875 197.78125 L 99.980469 291.972656 C 98.925781 293.03125 97.496094 293.625 96.003906 293.621094 Z M 96.003906 293.621094 " />
</g><g id="Time_Management_free_icon_1_gP7tO0b-11"><path style=" stroke:none;fill-rule:nonzero;fill:#617881;fill-opacity:1;" d="M 197.855469 212.941406 L 252.339844 267.425781 C 256.503906 271.589844 263.257812 271.589844 267.425781 267.425781 C 271.589844 263.261719 271.589844 256.507812 267.425781 252.339844 L 212.941406 197.855469 L 212.9375 197.855469 C 212.734375 197.648438 212.652344 197.351562 212.726562 197.070312 C 214.507812 189.757812 212.375 181.6875 206.328125 176.191406 C 198.363281 168.953125 185.976562 168.859375 177.910156 175.980469 C 168.597656 184.203125 168.265625 198.433594 176.917969 207.082031 C 182.382812 212.546875 190.074219 214.425781 197.074219 212.722656 C 197.355469 212.65625 197.652344 212.730469 197.859375 212.9375 Z M 197.855469 212.941406 " />
</g><g id="Time_Management_free_icon_1_gP7tO0b-12"><path style=" stroke:none;fill-rule:nonzero;fill:#f1f4f6;fill-opacity:1;" d="M 197.792969 192 C 197.792969 195.199219 195.199219 197.792969 192 197.792969 C 188.800781 197.792969 186.207031 195.199219 186.207031 192 C 186.207031 188.800781 188.800781 186.207031 192 186.207031 C 195.199219 186.207031 197.792969 188.800781 197.792969 192 " />
</g></g>
</svg>