<svg xmlns="http://www.w3.org/2000/svg" width="384pt" height="384pt" viewBox="0 0 384 384" version="1.1" class="iconadda">
<g>
<g id="Friend_Request_free_icon_Hp9HD73-0"><path style=" stroke:none;fill-rule:nonzero;fill:#3f7fff;fill-opacity:1;" d="M 383.933594 192 C 383.933594 85.960938 297.988281 0 191.964844 0 C 85.949219 0 0 85.960938 0 192 C 0 298.039062 85.949219 384 191.96875 384 C 297.992188 384 383.9375 298.039062 383.9375 192 Z M 383.933594 192 " />
</g><g id="Friend_Request_free_icon_Hp9HD73-1"><path style=" stroke:none;fill-rule:nonzero;fill:#3f69ef;fill-opacity:1;" d="M 291.257812 27.648438 C 325.460938 62.320312 346.582031 109.933594 346.582031 162.488281 C 346.582031 268.527344 260.632812 354.488281 154.613281 354.488281 C 118.273438 354.488281 84.292969 344.386719 55.324219 326.839844 C 90.132812 362.125 138.492188 384 191.96875 384 C 297.992188 384 383.9375 298.039062 383.9375 192 C 383.9375 122.304688 346.808594 61.289062 291.261719 27.648438 Z M 291.257812 27.648438 " />
</g><g id="Friend_Request_free_icon_Hp9HD73-2"><path style=" stroke:none;fill-rule:nonzero;fill:#e3faff;fill-opacity:1;" d="M 273.210938 257.910156 C 273.210938 262.019531 271.117188 265.855469 267.640625 268.046875 C 246.515625 281.382812 221.480469 289.085938 194.648438 289.085938 C 167.820312 289.085938 142.785156 281.382812 121.660156 268.046875 C 118.183594 265.855469 116.089844 262.019531 116.089844 257.910156 C 116.089844 214.519531 151.253906 179.339844 194.648438 179.339844 C 216.339844 179.339844 235.984375 188.140625 250.207031 202.363281 C 264.429688 216.566406 273.210938 236.214844 273.210938 257.910156 Z M 273.210938 257.910156 " />
</g><g id="Friend_Request_free_icon_Hp9HD73-3"><path style=" stroke:none;fill-rule:nonzero;fill:#ccf4ff;fill-opacity:1;" d="M 250.207031 202.363281 C 239.136719 191.292969 224.785156 183.511719 208.742188 180.601562 C 210.683594 182.226562 212.542969 183.941406 214.320312 185.746094 C 241.078125 212.925781 227.878906 259.101562 190.820312 268.121094 C 180.394531 270.660156 169.5 272 158.296875 272 C 144.894531 272 131.9375 270.078125 119.699219 266.492188 C 120.289062 267.074219 120.945312 267.597656 121.660156 268.046875 C 142.789062 281.382812 167.824219 289.085938 194.652344 289.085938 C 221.492188 289.085938 246.535156 281.378906 267.667969 268.035156 C 271.136719 265.84375 273.214844 262.015625 273.214844 257.910156 C 273.21875 236.214844 264.433594 216.570312 250.214844 202.363281 Z M 250.207031 202.363281 " />
</g><g id="Friend_Request_free_icon_Hp9HD73-4"><path style=" stroke:none;fill-rule:nonzero;fill:#47d7ff;fill-opacity:1;" d="M 236.855469 137.125 C 236.855469 113.8125 217.960938 94.914062 194.648438 94.914062 C 171.339844 94.914062 152.445312 113.8125 152.445312 137.125 C 152.445312 160.441406 171.339844 179.335938 194.648438 179.335938 C 217.960938 179.335938 236.855469 160.441406 236.855469 137.125 Z M 236.855469 137.125 " />
</g><g id="Friend_Request_free_icon_Hp9HD73-5"><path style=" stroke:none;fill-rule:nonzero;fill:#43c5ff;fill-opacity:1;" d="M 207.136719 96.792969 C 214.851562 104.441406 219.632812 115.046875 219.632812 126.769531 C 219.632812 150.085938 200.738281 168.984375 177.425781 168.984375 L 177.425781 168.980469 C 173.191406 168.984375 168.984375 168.351562 164.941406 167.101562 C 172.566406 174.664062 183.0625 179.335938 194.648438 179.335938 C 217.960938 179.335938 236.851562 160.441406 236.851562 137.125 C 236.851562 118.160156 224.34375 102.117188 207.132812 96.792969 Z M 207.136719 96.792969 " />
</g></g>
</svg>