<svg xmlns="http://www.w3.org/2000/svg" width="384pt" height="384pt" viewBox="0 0 384 384" version="1.1">
<g id="surface1350303">
<g id="Role-Model-free-icon-0"><g id="Role_Model_free_icon_sKdWCYf-0"><path style=" stroke:none;fill-rule:nonzero;fill:rgb(0%,0%,0%);fill-opacity:1;" d="M 188.113281 95.050781 C 183.808594 95.898438 180.6875 99.699219 180.6875 104.082031 L 180.6875 125.339844 C 180.6875 129.726562 183.808594 133.523438 188.113281 134.371094 L 196.828125 136.089844 L 202.941406 150.84375 L 197.996094 158.222656 C 195.554688 161.863281 196.03125 166.757812 199.132812 169.859375 L 214.164062 184.890625 C 217.265625 187.992188 222.160156 188.46875 225.800781 186.027344 L 233.179688 181.082031 L 247.933594 187.195312 L 249.652344 195.910156 C 250.5 200.214844 254.296875 203.335938 258.683594 203.335938 L 279.941406 203.335938 C 284.328125 203.335938 288.125 200.214844 288.972656 195.910156 L 290.691406 187.195312 L 305.445312 181.082031 L 312.824219 186.027344 C 316.464844 188.46875 321.359375 187.992188 324.460938 184.890625 L 339.492188 169.859375 C 342.59375 166.757812 343.070312 161.863281 340.628906 158.222656 L 335.679688 150.847656 L 341.792969 136.09375 L 350.507812 134.375 C 354.808594 133.527344 357.933594 129.726562 357.933594 125.34375 L 357.933594 104.085938 C 357.933594 99.703125 354.8125 95.902344 350.507812 95.054688 L 341.792969 93.335938 L 335.679688 78.582031 L 340.628906 71.203125 C 343.070312 67.5625 342.59375 62.667969 339.492188 59.566406 L 324.460938 44.535156 C 321.359375 41.433594 316.464844 40.953125 312.824219 43.398438 L 305.445312 48.34375 L 290.691406 42.230469 L 288.972656 33.515625 C 288.125 29.214844 284.324219 26.09375 279.941406 26.09375 L 258.683594 26.09375 C 254.296875 26.09375 250.5 29.214844 249.652344 33.519531 L 247.933594 42.234375 L 233.179688 48.347656 L 225.804688 43.402344 C 222.164062 40.957031 217.265625 41.4375 214.167969 44.539062 L 199.136719 59.570312 C 196.035156 62.671875 195.558594 67.566406 198 71.207031 L 202.945312 78.585938 L 196.832031 93.339844 L 188.117188 95.058594 Z M 205.449219 99.949219 L 213.714844 80 L 213.714844 79.996094 C 214.386719 78.375 214.203125 76.523438 213.226562 75.0625 L 207.304688 66.234375 L 220.832031 52.707031 L 229.660156 58.628906 C 231.121094 59.605469 232.972656 59.789062 234.59375 59.117188 L 254.542969 50.851562 C 256.167969 50.179688 257.347656 48.742188 257.6875 47.019531 L 259.742188 36.589844 L 278.875 36.589844 L 280.929688 47.019531 C 281.269531 48.742188 282.445312 50.179688 284.070312 50.851562 L 304.019531 59.117188 C 305.644531 59.789062 307.496094 59.605469 308.953125 58.628906 L 317.78125 52.707031 L 331.308594 66.234375 L 325.386719 75.0625 L 325.390625 75.066406 C 324.410156 76.523438 324.226562 78.375 324.898438 79.996094 L 333.164062 99.945312 L 333.164062 99.949219 C 333.835938 101.570312 335.277344 102.75 337 103.089844 L 347.429688 105.144531 L 347.429688 124.277344 L 337 126.332031 C 335.277344 126.671875 333.835938 127.851562 333.164062 129.472656 L 324.898438 149.425781 C 324.226562 151.046875 324.410156 152.898438 325.390625 154.359375 L 331.3125 163.1875 L 317.785156 176.714844 L 308.957031 170.792969 L 308.953125 170.792969 C 307.496094 169.816406 305.644531 169.632812 304.019531 170.304688 L 284.070312 178.570312 C 282.445312 179.242188 281.265625 180.679688 280.929688 182.402344 L 278.875 192.832031 L 259.742188 192.832031 L 257.6875 182.402344 C 257.347656 180.679688 256.167969 179.242188 254.542969 178.570312 L 234.59375 170.304688 C 232.972656 169.628906 231.121094 169.816406 229.660156 170.792969 L 220.832031 176.714844 L 207.304688 163.1875 L 213.226562 154.359375 C 214.203125 152.898438 214.386719 151.046875 213.714844 149.425781 L 205.449219 129.472656 C 204.777344 127.851562 203.335938 126.671875 201.613281 126.332031 L 191.183594 124.277344 L 191.183594 105.144531 L 201.613281 103.089844 C 203.335938 102.75 204.777344 101.570312 205.449219 99.949219 Z M 269.308594 168.652344 C 299.050781 168.652344 323.246094 144.457031 323.246094 114.714844 C 323.246094 84.972656 299.050781 60.777344 269.308594 60.777344 C 239.566406 60.777344 215.371094 84.972656 215.371094 114.714844 C 215.371094 144.457031 239.566406 168.652344 269.308594 168.652344 Z M 240.460938 147.148438 C 243.765625 134.015625 255.496094 124.746094 269.308594 124.746094 C 283.121094 124.746094 294.851562 134.015625 298.15625 147.148438 C 290.476562 153.984375 280.371094 158.148438 269.308594 158.148438 C 258.246094 158.148438 248.140625 153.984375 240.460938 147.148438 Z M 269.308594 114.132812 C 263.007812 114.132812 257.882812 109.007812 257.882812 102.707031 C 257.882812 96.40625 263.007812 91.28125 269.308594 91.28125 C 275.609375 91.28125 280.734375 96.40625 280.734375 102.707031 C 280.734375 109.007812 275.609375 114.132812 269.308594 114.132812 Z M 269.308594 71.269531 C 293.261719 71.269531 312.746094 90.757812 312.746094 114.707031 L 312.746094 114.710938 C 312.753906 122.921875 310.417969 130.960938 306.015625 137.890625 C 301.929688 128.777344 294.582031 121.527344 285.414062 117.566406 C 289.023438 113.65625 291.230469 108.4375 291.230469 102.710938 C 291.230469 90.621094 281.394531 80.785156 269.304688 80.785156 C 257.214844 80.785156 247.378906 90.621094 247.378906 102.710938 C 247.378906 108.4375 249.589844 113.65625 253.195312 117.566406 L 253.199219 117.566406 C 244.03125 121.527344 236.683594 128.777344 232.597656 137.890625 C 228.195312 130.960938 225.859375 122.921875 225.867188 114.710938 C 225.867188 90.757812 245.355469 71.273438 269.304688 71.273438 Z M 381 114.710938 C 381 162.496094 350.640625 204.976562 305.453125 220.425781 L 305.453125 220.421875 C 304.90625 220.609375 304.332031 220.707031 303.753906 220.707031 C 301.1875 220.703125 299 218.847656 298.582031 216.316406 C 298.160156 213.785156 299.628906 211.320312 302.054688 210.488281 C 342.996094 196.492188 370.5 158.003906 370.5 114.710938 C 370.5 58.914062 325.105469 13.519531 269.308594 13.519531 C 229.597656 13.519531 193.925781 36.664062 177.496094 72.089844 L 182.03125 69.394531 L 182.027344 69.390625 C 184.519531 67.9375 187.714844 68.765625 189.1875 71.242188 C 190.660156 73.722656 189.859375 76.921875 187.394531 78.417969 L 169.996094 88.761719 C 168.609375 89.582031 166.925781 89.726562 165.421875 89.144531 C 163.917969 88.566406 162.765625 87.328125 162.292969 85.789062 L 156.359375 66.4375 L 156.359375 66.433594 C 155.941406 65.101562 156.074219 63.65625 156.726562 62.417969 C 157.375 61.179688 158.496094 60.253906 159.832031 59.847656 C 161.167969 59.4375 162.613281 59.578125 163.84375 60.234375 C 165.078125 60.894531 165.996094 62.019531 166.398438 63.355469 L 167.820312 67.992188 C 185.886719 28.703125 225.355469 3.015625 269.308594 3.015625 C 330.894531 3.019531 381 53.125 381 114.710938 Z M 146.769531 230.949219 L 161.800781 215.917969 C 164.902344 212.816406 165.378906 207.921875 162.9375 204.28125 L 157.992188 196.902344 L 164.105469 182.148438 L 172.816406 180.429688 C 177.121094 179.582031 180.242188 175.78125 180.242188 171.398438 L 180.242188 150.140625 C 180.242188 145.753906 177.121094 141.957031 172.816406 141.109375 L 164.105469 139.390625 L 157.992188 124.636719 L 162.941406 117.257812 C 165.382812 113.617188 164.90625 108.722656 161.804688 105.621094 L 146.773438 90.589844 C 143.671875 87.488281 138.777344 87.011719 135.136719 89.453125 L 127.761719 94.398438 L 113.007812 88.285156 L 111.289062 79.570312 C 110.441406 75.265625 106.640625 72.144531 102.257812 72.144531 L 80.992188 72.144531 C 76.605469 72.144531 72.808594 75.265625 71.960938 79.570312 L 70.242188 88.285156 L 55.488281 94.398438 L 48.109375 89.449219 C 44.46875 87.007812 39.574219 87.484375 36.472656 90.585938 L 21.441406 105.617188 C 18.339844 108.71875 17.863281 113.613281 20.304688 117.253906 L 25.25 124.632812 L 19.136719 139.386719 L 10.425781 141.105469 C 6.125 141.953125 3 145.753906 3 150.136719 L 3 171.394531 C 3 175.78125 6.121094 179.578125 10.425781 180.425781 L 19.136719 182.144531 L 25.25 196.898438 L 20.304688 204.277344 C 17.863281 207.917969 18.339844 212.8125 21.441406 215.914062 L 36.472656 230.949219 C 39.574219 234.050781 44.46875 234.527344 48.109375 232.085938 L 55.488281 227.140625 L 70.242188 233.253906 L 71.960938 241.96875 C 72.808594 246.273438 76.605469 249.394531 80.992188 249.394531 L 102.25 249.394531 C 106.636719 249.394531 110.433594 246.273438 111.28125 241.96875 L 113 233.253906 L 127.753906 227.140625 L 135.132812 232.085938 C 138.773438 234.527344 143.667969 234.050781 146.769531 230.949219 Z M 126.335938 216.359375 L 106.382812 224.625 C 104.761719 225.296875 103.582031 226.738281 103.242188 228.460938 L 101.1875 238.890625 L 82.054688 238.890625 L 80 228.460938 C 79.660156 226.738281 78.480469 225.296875 76.859375 224.625 L 56.910156 216.359375 L 56.90625 216.359375 C 55.285156 215.6875 53.433594 215.871094 51.972656 216.851562 L 43.144531 222.773438 L 29.617188 209.246094 L 35.539062 200.417969 L 35.539062 200.414062 C 36.515625 198.957031 36.703125 197.105469 36.027344 195.480469 L 27.761719 175.53125 C 27.089844 173.90625 25.652344 172.726562 23.929688 172.390625 L 13.5 170.332031 L 13.5 151.203125 L 23.929688 149.148438 C 25.652344 148.808594 27.089844 147.628906 27.761719 146.007812 L 36.027344 126.054688 C 36.699219 124.433594 36.515625 122.582031 35.539062 121.121094 L 29.617188 112.292969 L 43.144531 98.765625 L 51.972656 104.6875 C 53.433594 105.664062 55.285156 105.847656 56.90625 105.175781 L 76.855469 96.910156 L 76.859375 96.910156 C 78.480469 96.238281 79.660156 94.796875 80 93.074219 L 82.054688 82.644531 L 101.1875 82.644531 L 103.242188 93.074219 C 103.582031 94.796875 104.761719 96.238281 106.382812 96.910156 L 126.332031 105.175781 L 126.335938 105.175781 C 127.957031 105.847656 129.808594 105.664062 131.269531 104.6875 L 140.097656 98.765625 L 153.625 112.292969 L 147.703125 121.121094 C 146.722656 122.578125 146.539062 124.429688 147.214844 126.054688 L 155.480469 146.007812 L 155.480469 146.003906 C 156.152344 147.628906 157.589844 148.808594 159.3125 149.148438 L 169.742188 151.203125 L 169.742188 170.332031 L 159.3125 172.386719 C 157.589844 172.726562 156.152344 173.90625 155.480469 175.527344 L 147.214844 195.476562 L 147.214844 195.480469 C 146.539062 197.101562 146.726562 198.953125 147.703125 200.414062 L 153.625 209.242188 L 140.097656 222.769531 L 131.269531 216.847656 L 131.265625 216.847656 C 129.808594 215.871094 127.957031 215.6875 126.332031 216.359375 Z M 91.621094 106.828125 C 61.878906 106.828125 37.683594 131.023438 37.683594 160.765625 C 37.683594 190.507812 61.878906 214.703125 91.621094 214.703125 C 121.363281 214.703125 145.558594 190.507812 145.558594 160.765625 C 145.558594 131.023438 121.363281 106.828125 91.621094 106.828125 Z M 91.621094 117.328125 C 115.574219 117.328125 135.058594 136.816406 135.058594 160.765625 C 135.066406 168.976562 132.730469 177.019531 128.328125 183.949219 C 124.242188 174.835938 116.894531 167.582031 107.726562 163.621094 C 111.335938 159.710938 113.542969 154.492188 113.542969 148.765625 C 113.542969 136.675781 103.707031 126.839844 91.617188 126.839844 C 79.527344 126.839844 69.691406 136.675781 69.691406 148.765625 C 69.691406 154.492188 71.902344 159.710938 75.507812 163.621094 L 75.511719 163.621094 C 66.347656 167.582031 58.996094 174.835938 54.910156 183.949219 C 50.507812 177.019531 48.175781 168.976562 48.179688 160.765625 C 48.179688 136.8125 67.667969 117.328125 91.617188 117.328125 Z M 91.621094 160.191406 C 85.320312 160.191406 80.195312 155.066406 80.195312 148.765625 C 80.195312 142.464844 85.320312 137.339844 91.621094 137.339844 C 97.921875 137.339844 103.046875 142.464844 103.046875 148.765625 C 103.046875 155.066406 97.921875 160.191406 91.621094 160.191406 Z M 62.773438 193.207031 C 66.078125 180.074219 77.808594 170.804688 91.621094 170.804688 C 105.433594 170.804688 117.164062 180.074219 120.46875 193.207031 C 112.789062 200.042969 102.683594 204.207031 91.621094 204.207031 C 80.558594 204.207031 70.453125 200.042969 62.773438 193.207031 Z M 304.410156 272.699219 L 295.695312 270.980469 L 289.582031 256.226562 L 294.53125 248.847656 C 296.972656 245.207031 296.496094 240.3125 293.394531 237.210938 L 278.363281 222.179688 C 275.261719 219.078125 270.367188 218.601562 266.726562 221.042969 L 259.351562 225.988281 L 244.597656 219.875 L 242.878906 211.164062 C 242.03125 206.859375 238.234375 203.738281 233.847656 203.738281 L 212.589844 203.738281 C 208.203125 203.738281 204.40625 206.859375 203.558594 211.164062 L 201.839844 219.878906 L 187.085938 225.992188 L 179.707031 221.042969 C 176.0625 218.601562 171.171875 219.082031 168.070312 222.179688 L 153.039062 237.210938 C 149.9375 240.3125 149.460938 245.207031 151.902344 248.847656 L 156.847656 256.226562 L 150.734375 270.980469 L 142.023438 272.699219 C 137.71875 273.546875 134.597656 277.34375 134.597656 281.730469 L 134.597656 302.988281 C 134.597656 307.375 137.71875 311.171875 142.023438 312.019531 L 150.738281 313.738281 L 156.851562 328.492188 L 151.90625 335.871094 C 149.464844 339.511719 149.941406 344.40625 153.042969 347.507812 L 168.074219 362.539062 C 171.175781 365.640625 176.070312 366.117188 179.710938 363.675781 L 187.089844 358.730469 L 201.84375 364.84375 L 203.5625 373.558594 C 204.410156 377.863281 208.210938 380.984375 212.59375 380.984375 L 233.851562 380.984375 C 238.238281 380.984375 242.035156 377.863281 242.882812 373.558594 L 244.601562 364.84375 L 259.355469 358.730469 L 266.734375 363.675781 C 270.375 366.117188 275.269531 365.640625 278.371094 362.539062 L 293.402344 347.507812 C 296.503906 344.40625 296.980469 339.511719 294.539062 335.871094 L 289.589844 328.492188 L 295.703125 313.738281 L 304.417969 312.019531 C 308.722656 311.171875 311.84375 307.371094 311.84375 302.988281 L 311.832031 281.730469 C 311.832031 277.34375 308.710938 273.546875 304.40625 272.699219 Z M 301.335938 301.925781 L 290.90625 303.980469 C 289.183594 304.320312 287.742188 305.5 287.070312 307.121094 L 278.804688 327.070312 L 278.804688 327.074219 C 278.132812 328.695312 278.316406 330.546875 279.292969 332.007812 L 285.214844 340.835938 L 271.6875 354.363281 L 262.859375 348.441406 C 261.398438 347.464844 259.546875 347.277344 257.925781 347.953125 L 237.976562 356.21875 C 236.351562 356.890625 235.171875 358.328125 234.835938 360.050781 L 232.78125 370.480469 L 213.648438 370.480469 L 211.59375 360.050781 L 211.589844 360.050781 C 211.25 358.328125 210.074219 356.890625 208.449219 356.214844 L 188.5 347.949219 C 186.875 347.277344 185.023438 347.460938 183.566406 348.441406 L 174.738281 354.363281 L 161.210938 340.835938 L 167.132812 332.007812 L 167.128906 332.003906 C 168.109375 330.546875 168.292969 328.695312 167.621094 327.070312 L 159.355469 307.121094 C 158.683594 305.496094 157.242188 304.320312 155.519531 303.980469 L 145.089844 301.925781 L 145.089844 282.792969 L 155.519531 280.738281 C 157.242188 280.398438 158.683594 279.21875 159.355469 277.597656 L 167.621094 257.644531 C 168.292969 256.023438 168.109375 254.171875 167.128906 252.710938 L 161.207031 243.882812 L 174.734375 230.355469 L 183.5625 236.277344 L 183.566406 236.277344 C 185.023438 237.253906 186.875 237.4375 188.5 236.765625 L 208.449219 228.5 C 210.074219 227.828125 211.25 226.390625 211.589844 224.664062 L 213.644531 214.234375 L 232.777344 214.234375 L 234.832031 224.664062 C 235.171875 226.390625 236.351562 227.828125 237.972656 228.5 L 257.925781 236.765625 C 259.546875 237.4375 261.398438 237.253906 262.859375 236.277344 L 271.6875 230.355469 L 285.214844 243.882812 L 279.292969 252.710938 C 278.316406 254.167969 278.132812 256.023438 278.804688 257.644531 L 287.070312 277.597656 C 287.742188 279.21875 289.179688 280.398438 290.90625 280.738281 L 301.335938 282.792969 Z M 223.214844 238.421875 C 193.472656 238.421875 169.277344 262.617188 169.277344 292.359375 C 169.277344 322.101562 193.472656 346.296875 223.214844 346.296875 C 252.957031 346.296875 277.152344 322.101562 277.152344 292.359375 C 277.152344 262.617188 252.957031 238.421875 223.214844 238.421875 Z M 194.367188 324.800781 C 197.671875 311.667969 209.402344 302.398438 223.214844 302.398438 C 237.027344 302.398438 248.757812 311.667969 252.0625 324.800781 C 244.382812 331.636719 234.277344 335.800781 223.214844 335.800781 C 212.152344 335.800781 202.046875 331.636719 194.367188 324.800781 Z M 223.214844 291.785156 C 216.914062 291.785156 211.789062 286.660156 211.789062 280.359375 C 211.789062 274.058594 216.914062 268.933594 223.214844 268.933594 C 229.515625 268.933594 234.640625 274.058594 234.640625 280.359375 C 234.640625 286.660156 229.515625 291.785156 223.214844 291.785156 Z M 259.921875 315.542969 C 255.835938 306.429688 248.488281 299.175781 239.320312 295.214844 C 242.929688 291.304688 245.136719 286.085938 245.136719 280.359375 C 245.136719 268.269531 235.300781 258.433594 223.210938 258.433594 C 211.121094 258.433594 201.285156 268.269531 201.285156 280.359375 C 201.285156 286.085938 203.496094 291.304688 207.101562 295.214844 L 207.105469 295.214844 C 197.9375 299.175781 190.589844 306.429688 186.503906 315.542969 C 182.101562 308.613281 179.765625 300.570312 179.773438 292.359375 C 179.773438 268.40625 199.261719 248.921875 223.210938 248.921875 C 247.164062 248.921875 266.648438 268.410156 266.648438 292.359375 L 266.652344 292.359375 C 266.660156 300.570312 264.324219 308.613281 259.921875 315.542969 Z M 259.921875 315.542969 " />
</g></g></g>
</svg>